<?xml version="1.0" encoding="UTF-8" standalone="no"?>
<!DOCTYPE svg PUBLIC "-//W3C//DTD SVG 1.1//EN" "http://www.w3.org/Graphics/SVG/1.1/DTD/svg11.dtd">
<svg width="100%" height="100%" viewBox="0 0 185 50" version="1.1" xmlns="http://www.w3.org/2000/svg" xmlns:xlink="http://www.w3.org/1999/xlink" xml:space="preserve" xmlns:serif="http://www.serif.com/" style="fill-rule:evenodd;clip-rule:evenodd;stroke-linejoin:round;stroke-miterlimit:2;">
    <g transform="matrix(1,0,0,1,-91,0)">
        <g>
            <path d="M246.903,16.668L249.734,16.668L249.596,16.984L250.282,16.668L250.961,16.668C251.914,16.675 254.831,16.668 254.831,16.668L253.683,19.316C253.683,19.316 252.853,19.188 252.246,19.477C249.726,20.701 249.207,22.63 248.253,24.613C247.531,26.212 247.192,26.965 245.762,30.346C244.167,30.346 240.968,30.352 240.932,30.352C240.947,30.319 241.488,28.981 242.138,27.597C243.596,24.297 244.369,22.556 245.669,19.417C246.629,17.206 246.903,16.668 246.903,16.668Z" style="fill:rgb(38,38,38);fill-rule:nonzero;"/>
            <path d="M153.77,16.668C153.741,16.735 153.373,17.562 153.373,17.562C154.008,16.991 154.845,16.668 155.734,16.668L157.199,16.668C158.001,16.668 158.65,17.273 158.65,18.019L159.589,17.394C160.297,16.923 161.134,16.668 162.008,16.668C162.456,16.668 162.968,16.668 163.423,16.661C166.08,16.648 167.69,19.014 166.679,21.305C166.21,22.368 162.708,30.359 162.708,30.359L157.878,30.359C157.878,30.359 160.398,24.619 161.344,22.455C161.589,21.89 162.022,21.077 161.026,20.741C160.203,20.465 159.806,21.232 159.567,21.769C158.571,23.987 155.806,30.359 155.806,30.359L150.903,30.359C150.903,30.359 153.351,24.841 154.203,22.825C154.492,22.132 155.084,21.238 153.965,20.855C152.91,20.492 152.448,21.561 152.145,22.267C151.113,24.639 148.629,30.292 148.629,30.292L143.77,30.352L149.748,16.668L153.77,16.668Z" style="fill:rgb(38,38,38);fill-rule:nonzero;"/>
            <path d="M175.243,16.668C175.243,16.668 174.853,17.562 171.474,25.332C171.236,25.876 170.882,26.541 171.705,26.904C172.622,27.314 172.969,26.481 173.243,25.869C174.463,23.094 176.037,19.471 177.258,16.668L182.499,16.668C182.499,16.668 178.095,26.911 176.066,31.414C174.413,35.051 168.853,34.735 168.853,34.735C168.853,34.735 169.619,33.733 169.922,33.296C170.16,32.954 170.442,32.631 170.665,32.288C171.965,30.359 171.359,30.359 169.604,30.359C166.99,30.359 165.214,27.892 166.203,25.641C167.431,22.845 170.117,16.675 170.117,16.675L175.243,16.675L175.243,16.668Z" style="fill:rgb(38,38,38);fill-rule:nonzero;"/>
            <path d="M260.831,16.668C260.831,16.668 260.441,17.562 257.062,25.332C256.824,25.876 256.47,26.541 257.293,26.904C258.21,27.314 258.557,26.481 258.831,25.869C260.051,23.094 261.625,19.471 262.846,16.668L268.088,16.668C268.088,16.668 263.683,26.911 261.654,31.414C260.001,35.051 254.441,34.735 254.441,34.735C254.441,34.735 255.207,33.733 255.51,33.296C255.748,32.954 256.03,32.631 256.254,32.288C257.553,30.359 256.947,30.359 255.192,30.359C252.579,30.359 250.802,27.892 251.791,25.641C253.019,22.845 255.705,16.675 255.705,16.675L260.831,16.675L260.831,16.668Z" style="fill:rgb(38,38,38);fill-rule:nonzero;"/>
            <path d="M214.26,26.172L213.473,27.482C212.411,29.257 210.397,30.359 208.209,30.359L205.126,30.359C202.599,30.218 200.982,27.892 201.942,25.715C202.671,24.055 203.415,22.361 203.805,21.427C204.989,18.604 207.805,16.668 211.061,16.668L212.209,16.668C214.433,16.668 216.354,18.288 216.375,20.365C216.383,20.828 216.007,22.119 216.007,22.119L210.65,22.119C210.65,22.119 210.772,21.796 211.003,21.312C211.22,20.862 210.946,20.452 210.216,20.466C209.617,20.472 209.263,20.835 209.076,21.292C208.455,22.818 207.863,24.357 207.278,25.896C207.126,26.306 207.112,26.951 207.581,26.999C208.498,27.093 208.873,26.172 208.873,26.172L214.26,26.172Z" style="fill:rgb(38,38,38);fill-rule:nonzero;"/>
            <path d="M241.43,26.172L240.643,27.482C239.582,29.257 237.568,30.359 235.38,30.359L232.297,30.359C229.77,30.218 228.152,27.892 229.113,25.715C229.842,24.055 230.586,22.361 230.976,21.427C232.16,18.604 234.976,16.668 238.232,16.668L239.38,16.668C241.604,16.668 243.524,18.288 243.546,20.365C243.546,20.425 243.532,20.519 243.495,20.647C243.033,22.576 241.409,24.088 239.351,24.586L236.412,25.298C236.412,25.298 237.943,21.796 238.174,21.312C238.391,20.862 238.116,20.452 237.387,20.466C236.788,20.472 236.434,20.835 236.246,21.292C235.625,22.818 235.033,24.357 234.448,25.896C234.297,26.306 234.282,26.951 234.752,26.999C235.669,27.093 236.044,26.172 236.044,26.172L241.43,26.172Z" style="fill:rgb(38,38,38);fill-rule:nonzero;"/>
            <path d="M197.286,16.668L200.116,16.668L199.979,16.984L200.665,16.668L201.344,16.668C202.297,16.675 205.214,16.668 205.214,16.668L204.066,19.316C204.066,19.316 203.235,19.188 202.629,19.477C200.109,20.701 199.589,22.63 198.636,24.613C197.914,26.212 197.575,26.965 196.145,30.346C194.549,30.346 191.351,30.352 191.314,30.352C191.329,30.319 191.87,28.981 192.52,27.597C193.979,24.297 194.751,22.556 196.051,19.417C197.019,17.206 197.286,16.668 197.286,16.668Z" style="fill:rgb(38,38,38);fill-rule:nonzero;"/>
            <path d="M225.761,30.36C223.003,30.353 222.592,30.36 221.075,30.36C221.956,28.269 223.696,24.331 224.621,22.307C225.083,21.299 225.249,20.977 224.296,20.573C223.306,20.157 222.902,21.104 222.628,21.709C221.646,23.914 219.92,27.812 218.83,30.353L213.906,30.353C213.906,30.353 219.711,17.152 220.137,16.137C220.621,14.968 221.039,14 221.039,14L225.956,14L224.801,16.668L226.881,16.668C229.191,16.668 230.772,18.846 229.906,20.842C228.649,23.739 226.317,29.143 225.761,30.36Z" style="fill:rgb(38,38,38);fill-rule:nonzero;"/>
            <path d="M183.069,30.359C180.701,30.359 179.083,28.135 179.964,26.091C180.434,25.002 180.881,23.967 181.148,23.356L183.098,18.92C183.697,17.562 185.112,16.675 186.693,16.675L190.448,16.675C190.939,16.675 191.769,17.139 191.589,17.569L191.979,16.675L195.979,16.675C195.979,16.675 192.087,25.628 190.477,29.291L190,30.366L186,30.366L186.376,29.506L185.813,29.922C185.423,30.211 184.939,30.366 184.441,30.366L183.069,30.359ZM188.997,21.615C189.3,20.983 189.17,20.64 188.592,20.466C188.029,20.298 187.538,20.64 187.336,21.071C186.592,22.684 185.921,24.317 185.264,25.957C185.134,26.273 185.249,26.649 185.639,26.817C186.217,27.066 186.737,26.817 186.939,26.367C187.863,24.297 188.376,23.121 188.997,21.615Z" style="fill:rgb(38,38,38);fill-rule:nonzero;"/>
            <path d="M122.474,11.022C116.886,11.022 112.354,15.552 112.354,21.142C112.354,22.252 111.454,23.153 110.343,23.153C109.232,23.153 108.332,22.252 108.332,21.142C108.332,13.33 114.665,7 122.474,7C130.283,7 136.615,13.333 136.615,21.142C136.615,28.951 130.283,35.283 122.474,35.283C120.83,35.283 119.247,35.003 117.774,34.482C116.727,34.112 116.177,32.963 116.547,31.916C116.917,30.869 118.066,30.32 119.113,30.69C120.161,31.06 121.291,31.261 122.474,31.261C128.061,31.261 132.593,26.729 132.593,21.142C132.593,15.554 128.061,11.022 122.474,11.022Z" style="fill:rgb(237,28,36);"/>
            <path d="M105.193,26.778C105.526,27.268 105.4,27.935 104.91,28.268L100.372,31.356L105.164,32.365L104.37,37.534L108.809,34.593C109.302,34.266 109.968,34.401 110.295,34.895C110.622,35.389 110.487,36.054 109.993,36.381L101.513,41.999L102.735,34.046L95,32.416L103.703,26.494C104.193,26.161 104.86,26.288 105.193,26.778Z"/>
            <path d="M123.047,22.199C123.547,21.882 123.695,21.22 123.378,20.719C123.061,20.219 122.399,20.07 121.898,20.387L114.209,25.26L108.191,23.954C107.612,23.828 107.041,24.196 106.915,24.775C106.79,25.353 107.157,25.924 107.736,26.05L113.193,27.235L112.329,32.657C112.235,33.242 112.634,33.792 113.219,33.886C113.804,33.979 114.354,33.58 114.447,32.995L115.395,27.048L123.047,22.199Z"/>
            <path d="M122.474,15.058C119.111,15.058 116.387,17.782 116.387,21.144C116.387,21.616 116.443,22.075 116.542,22.515L121.323,19.485C121.666,19.267 122.063,19.152 122.471,19.152C123.211,19.152 123.889,19.525 124.283,20.15C124.916,21.15 124.619,22.477 123.621,23.11L118.921,26.089C119.921,26.808 121.146,27.234 122.471,27.234C125.833,27.234 128.558,24.51 128.558,21.147C128.558,17.785 125.836,15.058 122.474,15.058Z" style="fill:rgb(237,28,36);fill-rule:nonzero;"/>
            <rect x="265.098" y="24.5" width="10.499" height="10.5" style="fill:none;fill-rule:nonzero;"/>
        </g>
    </g>
</svg>
